# xmcd CD database file
#
# Track frame offsets:
#	150
#	22539
#	39122
#	60961
#	87287
#
# Disc length: 1934 seconds
#
# Revision: 0
# Processed by: cddbd v1.5.2PL0 Copyright (c) Steve Scherf et al.
# Submitted via: CDex 1.70beta2
#
DISCID=23078c05
DTITLE=Moira - Take my hand
DYEAR=2009
DGENRE=Blues
TTITLE0=Cuerpo de cartón
TTITLE1=Sweet suit swing
TTITLE2=My hand
TTITLE3=Muerte en vida
TTITLE4=Adios
EXTD=YEAR: 2009
EXTT0=
EXTT1=
EXTT2=
EXTT3=
EXTT4=
PLAYORDER=
